<svg version="1.1" width="200" height="200" viewBox="0 0 200 200" xmlns="http://www.w3.org/2000/svg" xmlns:xlink="http://www.w3.org/1999/xlink"><g xmlns="http://www.w3.org/2000/svg" id="obj_2"><g id="obj_76" transform="matrix(0.9702957262759965,-0.24192189559966773,0.24192189559966773,0.9702957262759965,75.67574185757728,106.51669071954144)" opacity="1" display="inline"><path d="M 77.9353 25.0018 C 42.9432 42.6537 8.642 33.1868 0 0 C 6.995 40.8737 44.5042 53.9936 77.8263 50.7016 C 79.6924 47.3137 71.8133 34.5618 77.9353 25.0018 Z " fill-opacity="1" fill="url(#obj_76_grad_pat_fill)" stroke="none" stroke-width="1" stroke-linecap="square" stroke-linejoin="miter" filter="url(#obj_76_filter)"/><defs><filter id="obj_76_filter" x="-102%" y="-156%" width="304%" height="412%" filterUnits="objectBoundingBox"><feGaussianBlur in="SourceAlpha" stdDeviation="1"/><feComposite result="glowInnerdiff" operator="arithmetic" in2="SourceAlpha" k1="0" k2="-1" k3="1" k4="0"/><feFlood flood-color="#2b0059" flood-opacity="1"/><feComposite operator="in" in2="glowInnerdiff"/><feComposite result="glowInner" operator="over" in2="SourceGraphic"/></filter><linearGradient spreadMethod="pad" x1="0" y1="1" x2="0" y2="0" id="obj_76_grad_pat_fill"><stop offset="0" stop-color="#aa56ff" stop-opacity="0.99609375"/><stop offset="0.43359375" stop-color="#7f00ff" stop-opacity="0.99609375"/></linearGradient></defs></g><g id="obj_74" transform="matrix(1,0,0,1,59.029999999999994,65.80100000000002)" opacity="1" display="inline"><path d="M 40.564 0 C 62.96 0 81.133 16.059 81.133 35.85 C 81.133 55.637 62.96 71.7 40.564 71.7 C 18.172 71.7 0 55.637 0 35.85 C 0 16.059 18.172 0 40.564 0 Z " fill-opacity="1" fill="#ffffff" stroke="none" stroke-width="1" stroke-linecap="square" stroke-linejoin="miter"/><defs/></g><g id="obj_3" transform="matrix(1,0,0,1,53.997,71.762)" opacity="1" display="inline"><path d="M 28.9409 81.0967 C 5.4798 49.6988 8.8468 14.2749 40.032 0 C 0.9897 13.989 -5.4183 53.2068 3.6107 85.4507 C 7.2728 86.7007 18.4618 76.7267 28.9409 81.0967 Z " fill-opacity="1" fill="url(#obj_3_grad_pat_fill)" stroke="none" stroke-width="1" stroke-linecap="square" stroke-linejoin="miter"/><defs><linearGradient x1="-0.094" y1="0.928" x2="1.333" y2="0.133" id="obj_3_grad_pat_fill"><stop offset="0" stop-color="#7F0000"/><stop offset="1" stop-color="#FFFFFF"/></linearGradient></defs></g><g id="obj_4" transform="matrix(1,0,0,1,62.346,75.648)" opacity="1" display="inline"><path d="M 39.609 79.996 C 6.8247 58.518 -2.1283 24.078 22.2939 0 C -10.9154 23.009 -2.2163 65.542 17.2948 92.755 C 21.1639 92.677 28.2679 79.474 39.609 79.996 Z " fill-opacity="1" fill="url(#obj_4_grad_pat_fill)" stroke="none" stroke-width="1" stroke-linecap="square" stroke-linejoin="miter"/><defs><linearGradient x1="0.201" y1="0.96" x2="0.977" y2="0.049" id="obj_4_grad_pat_fill"><stop offset="0" stop-color="#7F001A"/><stop offset="1" stop-color="#FFFFFF"/></linearGradient></defs></g><g id="obj_5" transform="matrix(1,0,0,1,40.341,70.309)" opacity="1" display="inline"><path d="M 25.291 72.415 C 13.983 34.887 29.264 2.7479 63.451 0.0009 C 21.978 -0.2081 2.543 34.457 0 67.845 C 3.013 70.269 16.939 64.727 25.291 72.415 Z " fill-opacity="1" fill="url(#obj_5_grad_pat_fill)" stroke="none" stroke-width="1" stroke-linecap="square" stroke-linejoin="miter"/><defs><linearGradient x1="-0.07" y1="0.82" x2="1.143" y2="0.207" id="obj_5_grad_pat_fill"><stop offset="0" stop-color="#7F1900"/><stop offset="1" stop-color="#FFFFFF"/></linearGradient></defs></g><g id="obj_6" transform="matrix(1,0,0,1,30.14,69.243)" opacity="1" display="inline"><path d="M 22.203 59.075 C 24.414 19.9413 49.763 -5.0315 82.827 4.0794 C 43.927 -10.3005 13.81 15.6243 0 46.1281 C 2.002 49.4391 16.985 48.9921 22.203 59.075 Z " fill-opacity="1" fill="url(#obj_6_grad_pat_fill)" stroke="none" stroke-width="1" stroke-linecap="square" stroke-linejoin="miter"/><defs><linearGradient x1="0" y1="0.5" x2="1" y2="0.5" id="obj_6_grad_pat_fill"><stop offset="0" stop-color="#7F4B00"/><stop offset="1" stop-color="#FFFFFF"/></linearGradient></defs></g><g id="obj_7" transform="matrix(1,0,0,1,29.57,64.949)" opacity="1" display="inline"><path d="M 16.435 45.508 C 31.894 9.4923 64.256 -5.3056 92.211 14.5653 C 60.576 -12.2505 23.408 1.8074 0 25.7502 C 0.747 29.5441 14.979 34.2501 16.435 45.508 Z " fill-opacity="1" fill="url(#obj_7_grad_pat_fill)" stroke="none" stroke-width="1" stroke-linecap="square" stroke-linejoin="miter"/><defs><linearGradient x1="0.02" y1="0.36" x2="0.965" y2="0.698" id="obj_7_grad_pat_fill"><stop offset="0" stop-color="#7F7F00"/><stop offset="1" stop-color="#FFFFFF"/></linearGradient></defs></g><g id="obj_8" transform="matrix(1,0,0,1,36.674,57.962)" opacity="1" display="inline"><path d="M 8.7089 33.422 C 35.5529 4.868 71.024 2.031 90.497 30.262 C 69.943 -5.755 30.2059 -5.256 0.0219 9.233 C -0.5731 13.058 11.1909 22.347 8.7089 33.422 Z " fill-opacity="1" fill="url(#obj_8_grad_pat_fill)" stroke="none" stroke-width="1" stroke-linecap="square" stroke-linejoin="miter"/><defs><linearGradient x1="0.038" y1="0.218" x2="0.978" y2="1.144" id="obj_8_grad_pat_fill"><stop offset="0" stop-color="#647F00"/><stop offset="1" stop-color="#FFFFFF"/></linearGradient></defs></g><g id="obj_9" transform="matrix(1,0,0,1,51.359,47.089)" opacity="1" display="inline"><path d="M 0.1856 26.1849 C 35.1778 8.5329 69.479 17.9989 78.121 51.188 C 71.123 10.3119 33.6138 -2.8091 0.2936 0.4849 C -1.5724 3.8719 6.3076 16.6259 0.1856 26.1849 Z " fill-opacity="1" fill="url(#obj_9_grad_pat_fill)" stroke="none" stroke-width="1" stroke-linecap="square" stroke-linejoin="miter"/><defs><linearGradient x1="0.122" y1="0.176" x2="0.988" y2="0.939" id="obj_9_grad_pat_fill"><stop offset="0" stop-color="#4B7F00"/><stop offset="1" stop-color="#FFFFFF"/></linearGradient></defs></g><g id="obj_10" transform="matrix(1,0,0,1,63.558,34.132)" opacity="1" display="inline"><path d="M 0 24.112 C 38.9189 19.492 67.9148 40.118 64.6848 74.262 C 72.0888 33.458 41.3289 8.301 8.893 0 C 5.978 2.545 9.021 17.224 0 24.112 Z " fill-opacity="1" fill="url(#obj_10_grad_pat_fill)" stroke="none" stroke-width="1" stroke-linecap="square" stroke-linejoin="miter"/><defs><linearGradient x1="0.164" y1="0.153" x2="0.93" y2="0.722" id="obj_10_grad_pat_fill"><stop offset="0" stop-color="#197F00"/><stop offset="1" stop-color="#FFFFFF"/></linearGradient></defs></g><g id="obj_11" transform="matrix(1,0,0,1,79.387,28.617)" opacity="1" display="inline"><path d="M 0 19.616 C 38.151 28.585 58.3419 57.884 43.63 88.863 C 64.5429 53.053 44.244 18.893 16.603 0 C 12.994 1.395 10.833 16.228 0 19.616 Z " fill-opacity="1" fill="url(#obj_11_grad_pat_fill)" stroke="none" stroke-width="1" stroke-linecap="square" stroke-linejoin="miter"/><defs><linearGradient x1="0.5" y1="0" x2="0.5" y2="1" id="obj_11_grad_pat_fill"><stop offset="0" stop-color="#007F6F"/><stop offset="1" stop-color="#FFFFFF"/></linearGradient></defs></g><g id="obj_12" transform="matrix(1,0,0,1,106.063,42.915)" opacity="1" display="inline"><path d="M 11.087 4.4658 C 34.547 35.8609 31.182 71.284 0 85.559 C 39.0381 71.568 45.4451 32.3529 36.416 0.1088 C 32.755 -1.1382 21.565 8.8348 11.087 4.4658 Z " fill-opacity="1" fill="url(#obj_12_grad_pat_fill)" stroke="none" stroke-width="1" stroke-linecap="square" stroke-linejoin="miter"/><defs><linearGradient x1="1.094" y1="0.072" x2="-0.333" y2="0.867" id="obj_12_grad_pat_fill"><stop offset="0" stop-color="#004C7F"/><stop offset="1" stop-color="#FFFFFF"/></linearGradient></defs></g><g id="obj_13" transform="matrix(1,0,0,1,95.893,56.81)" opacity="1" display="inline"><path d="M 38.156 0 C 49.464 37.526 34.185 69.6631 0 72.4131 C 41.47 72.6191 60.903 37.958 63.446 4.572 C 60.433 2.144 46.508 7.689 38.156 0 Z " fill-opacity="1" fill="url(#obj_13_grad_pat_fill)" stroke="none" stroke-width="1" stroke-linecap="square" stroke-linejoin="miter"/><defs><linearGradient x1="1.06" y1="0.13" x2="-0.111" y2="0.849" id="obj_13_grad_pat_fill"><stop offset="0" stop-color="#00337F"/><stop offset="1" stop-color="#FFFFFF"/></linearGradient></defs></g><g id="obj_14" transform="matrix(1,0,0,1,85.911,71.409)" opacity="1" display="inline"><path d="M 60.619 0 C 58.41 39.1312 33.062 64.1044 0 54.9933 C 38.898 69.3714 69.014 43.4482 82.822 12.9451 C 80.821 9.6341 65.839 10.0821 60.619 0 Z " fill-opacity="1" fill="url(#obj_14_grad_pat_fill)" stroke="none" stroke-width="1" stroke-linecap="square" stroke-linejoin="miter"/><defs><linearGradient x1="1" y1="0.5" x2="0" y2="0.5" id="obj_14_grad_pat_fill"><stop offset="0" stop-color="#00007F"/><stop offset="1" stop-color="#FFFFFF"/></linearGradient></defs></g><g id="obj_15" transform="matrix(1,0,0,1,77.729,89.315)" opacity="1" display="inline"><path d="M 75.772 0 C 60.314 36.016 27.953 50.811 0 30.944 C 31.634 57.7581 68.801 43.7 92.209 19.759 C 91.459 15.963 77.227 11.257 75.772 0 Z " fill-opacity="1" fill="#33007F" stroke="none" stroke-width="1" stroke-linecap="square" stroke-linejoin="miter"/><defs/></g><g id="obj_16" transform="matrix(1,0,0,1,69.567,100.945)" opacity="1" display="inline"><path d="M 77.9353 25.0018 C 42.9432 42.6537 8.642 33.1868 0 0 C 6.995 40.8737 44.5042 53.9936 77.8263 50.7016 C 79.6924 47.3137 71.8133 34.5618 77.9353 25.0018 Z " fill-opacity="1" fill="url(#obj_16_grad_pat_fill)" stroke="none" stroke-width="1" stroke-linecap="square" stroke-linejoin="miter"/><defs><linearGradient x1="0.902" y1="1.108" x2="0.169" y2="-0.225" id="obj_16_grad_pat_fill"><stop offset="0" stop-color="#7F007F"/><stop offset="1" stop-color="#FFFFFF"/></linearGradient></defs></g><g id="obj_17" transform="matrix(1,0,0,1,70.511,91.613)" opacity="1" display="inline"><path d="M 65.799 50.152 C 26.8791 54.77 -2.1168 34.144 1.1132 0 C -6.2908 40.806 24.4691 65.963 56.905 74.265 C 59.817 71.721 56.775 57.044 65.799 50.152 Z " fill-opacity="1" fill="url(#obj_17_grad_pat_fill)" stroke="none" stroke-width="1" stroke-linecap="square" stroke-linejoin="miter"/><defs><linearGradient x1="0.728" y1="1.041" x2="0.266" y2="-0.084" id="obj_17_grad_pat_fill"><stop offset="0" stop-color="#7F004C"/><stop offset="1" stop-color="#FF009A"/></linearGradient></defs></g><g id="obj_18" transform="matrix(1,0,0,1,66.472,86.813)" opacity="1" display="inline"><path d="M 53.655 65.018 C 15.5033 56.046 -5.3216 29.736 8.2873 0 C -12.6285 31.752 9.4103 65.738 37.0521 84.636 C 40.6591 83.239 42.8211 68.403 53.655 65.018 Z " fill-opacity="1" fill="url(#obj_18_grad_pat_fill)" stroke="none" stroke-width="1" stroke-linecap="square" stroke-linejoin="miter"/><defs><linearGradient x1="0.5" y1="1" x2="0.5" y2="-0.002" id="obj_18_grad_pat_fill"><stop offset="0" stop-color="#7F0033"/><stop offset="1" stop-color="#FF0066"/></linearGradient></defs></g><g id="obj_19" transform="matrix(1,0,0,1,98.219,31.745)" opacity="1" display="inline"><path d="M 0 12.756 C 32.7828 34.231 41.7368 68.67 17.3149 92.749 C 49.2158 66.252 41.8228 27.209 22.3099 0 C 18.4439 0.077 11.3399 13.274 0 12.756 Z " fill-opacity="1" fill="url(#obj_19_grad_pat_fill)" stroke="none" stroke-width="1" stroke-linecap="square" stroke-linejoin="miter"/><defs><linearGradient x1="0.877" y1="0.055" x2="-0.12" y2="0.956" id="obj_19_grad_pat_fill"><stop offset="0" stop-color="#00667F"/><stop offset="0.0781" stop-color="#00667F"/><stop offset="1" stop-color="#FFFFFF"/></linearGradient></defs></g><g id="obj_37" transform="matrix(1,0,0,1,61.602,76.487)" opacity="1" display="inline"><path d="M 24.1171 67.5789 C 4.5654 41.4149 7.3733 11.894 33.358 0 C 0.8244 11.658 -4.5145 44.3389 3.0084 71.2099 C 6.0593 72.2519 15.3852 63.9399 24.1171 67.5789 Z " fill-opacity="1" fill="url(#obj_37_grad_pat_fill)" stroke="none" stroke-width="1" stroke-linecap="square" stroke-linejoin="miter"/><defs><linearGradient x1="-0.094" y1="0.928" x2="1.333" y2="0.133" id="obj_37_grad_pat_fill"><stop offset="0" stop-color="#FF0000"/><stop offset="1" stop-color="#FFFFFF"/></linearGradient></defs></g><g id="obj_38" transform="matrix(1,0,0,1,68.559,79.724)" opacity="1" display="inline"><path d="M 33.005 66.666 C 5.6852 48.767 -1.7727 20.066 18.5781 0 C -9.0957 19.174 -1.8477 54.62 14.4132 77.295 C 17.6351 77.231 23.5561 66.231 33.005 66.666 Z " fill-opacity="1" fill="url(#obj_38_grad_pat_fill)" stroke="none" stroke-width="1" stroke-linecap="square" stroke-linejoin="miter"/><defs><linearGradient x1="0.201" y1="0.96" x2="0.977" y2="0.049" id="obj_38_grad_pat_fill"><stop offset="0" stop-color="#FF0033"/><stop offset="1" stop-color="#FFFFFF"/></linearGradient></defs></g><g id="obj_39" transform="matrix(1,0,0,1,50.221,75.275)" opacity="1" display="inline"><path d="M 21.076 60.347 C 11.653 29.0719 24.386 2.2898 52.875 0.0008 C 18.315 -0.1752 2.119 28.7129 0 56.538 C 2.51 58.558 14.117 53.939 21.076 60.347 Z " fill-opacity="1" fill="url(#obj_39_grad_pat_fill)" stroke="none" stroke-width="1" stroke-linecap="square" stroke-linejoin="miter"/><defs><linearGradient x1="-0.07" y1="0.82" x2="1.143" y2="0.207" id="obj_39_grad_pat_fill"><stop offset="0" stop-color="#FF3200"/><stop offset="1" stop-color="#FFFFFF"/></linearGradient></defs></g><g id="obj_40" transform="matrix(1,0,0,1,41.618,74.384)" opacity="1" display="inline"><path d="M 18.503 49.23 C 20.343 16.619 41.47 -4.192 69.022 3.4 C 36.606 -8.585 11.508 13.022 0 38.443 C 1.668 41.201 14.154 40.828 18.503 49.23 Z " fill-opacity="1" fill="url(#obj_40_grad_pat_fill)" stroke="none" stroke-width="1" stroke-linecap="square" stroke-linejoin="miter"/><defs><linearGradient x1="0" y1="0.5" x2="1" y2="0.5" id="obj_40_grad_pat_fill"><stop offset="0" stop-color="#FF9700"/><stop offset="1" stop-color="#FFFFFF"/></linearGradient></defs></g><g id="obj_41" transform="matrix(1,0,0,1,41.242,70.808)" opacity="1" display="inline"><path d="M 13.698 37.924 C 26.58 7.911 53.55 -4.42 76.843 12.137 C 50.482 -10.209 19.508 1.507 0 21.459 C 0.625 24.622 12.486 28.543 13.698 37.924 Z " fill-opacity="1" fill="url(#obj_41_grad_pat_fill)" stroke="none" stroke-width="1" stroke-linecap="square" stroke-linejoin="miter"/><defs><linearGradient x1="0.02" y1="0.36" x2="0.965" y2="0.698" id="obj_41_grad_pat_fill"><stop offset="0" stop-color="#FFFF00"/><stop offset="1" stop-color="#FFFFFF"/></linearGradient></defs></g><g id="obj_42" transform="matrix(1,0,0,1,47.164,64.986)" opacity="1" display="inline"><path d="M 7.2582 27.852 C 29.6281 4.0564 59.1881 1.6914 75.416 25.218 C 58.2841 -4.7975 25.1742 -4.3795 0.0182 7.6953 C -0.4778 10.8793 9.3282 18.6222 7.2582 27.852 Z " fill-opacity="1" fill="url(#obj_42_grad_pat_fill)" stroke="none" stroke-width="1" stroke-linecap="square" stroke-linejoin="miter"/><defs><linearGradient x1="0.038" y1="0.218" x2="0.978" y2="1.144" id="obj_42_grad_pat_fill"><stop offset="0" stop-color="#C9FF00"/><stop offset="1" stop-color="#FFFFFF"/></linearGradient></defs></g><g id="obj_43" transform="matrix(1,0,0,1,59.404,55.925)" opacity="1" display="inline"><path d="M 0.1523 21.8211 C 29.3132 7.1092 57.898 15.0002 65.1 42.656 C 59.268 8.5942 28.0112 -2.3387 0.2453 0.4033 C -1.3117 3.2273 5.2543 13.8552 0.1523 21.8211 Z " fill-opacity="1" fill="url(#obj_43_grad_pat_fill)" stroke="none" stroke-width="1" stroke-linecap="square" stroke-linejoin="miter"/><defs><linearGradient x1="0.122" y1="0.176" x2="0.988" y2="0.939" id="obj_43_grad_pat_fill"><stop offset="0" stop-color="#97FF00"/><stop offset="1" stop-color="#FFFFFF"/></linearGradient></defs></g><g id="obj_44" transform="matrix(1,0,0,1,69.567,45.127)" opacity="1" display="inline"><path d="M 0 20.095 C 32.4322 16.246 56.5964 33.434 53.9043 61.886 C 60.0744 27.882 34.4412 6.918 7.41 0 C 4.983 2.121 7.519 14.354 0 20.095 Z " fill-opacity="1" fill="url(#obj_44_grad_pat_fill)" stroke="none" stroke-width="1" stroke-linecap="square" stroke-linejoin="miter"/><defs><linearGradient x1="0.166" y1="0.154" x2="0.932" y2="0.724" id="obj_44_grad_pat_fill"><stop offset="0" stop-color="#32FF00"/><stop offset="1" stop-color="#FFFFFF"/></linearGradient></defs></g><g id="obj_45" transform="matrix(1,0,0,1,82.656,40.53)" opacity="1" display="inline"><path d="M 0 16.348 C 31.7927 23.823 48.6196 48.24 36.3587 74.056 C 53.7875 44.213 36.8697 15.746 13.8349 0 C 10.8309 1.163 9.0299 13.524 0 16.348 Z " fill-opacity="1" fill="url(#obj_45_grad_pat_fill)" stroke="none" stroke-width="1" stroke-linecap="square" stroke-linejoin="miter"/><defs><linearGradient x1="0.5" y1="0" x2="0.5" y2="1" id="obj_45_grad_pat_fill"><stop offset="0" stop-color="#00FFDF"/><stop offset="1" stop-color="#FFFFFF"/></linearGradient></defs></g><g id="obj_46" transform="matrix(1,0,0,1,98.35,43.137)" opacity="1" display="inline"><path d="M 0 10.629 C 27.3188 28.527 34.7798 57.226 14.4309 77.291 C 41.0147 55.209 34.8528 22.673 18.5929 0 C 15.3699 0.064 9.4499 11.065 0 10.629 Z " fill-opacity="1" fill="url(#obj_46_grad_pat_fill)" stroke="none" stroke-width="1" stroke-linecap="square" stroke-linejoin="miter"/><defs><linearGradient x1="0.877" y1="0.055" x2="-0.12" y2="0.956" id="obj_46_grad_pat_fill"><stop offset="0" stop-color="#00CDFF"/><stop offset="1" stop-color="#FFFFFF"/></linearGradient></defs></g><g id="obj_47" transform="matrix(1,0,0,1,104.887,52.446)" opacity="1" display="inline"><path d="M 9.241 3.722 C 28.791 29.884 25.986 59.403 0 71.299 C 32.532 59.64 37.8709 26.961 30.347 0.091 C 27.297 -0.95 17.971 7.362 9.241 3.722 Z " fill-opacity="1" fill="url(#obj_47_grad_pat_fill)" stroke="none" stroke-width="1" stroke-linecap="square" stroke-linejoin="miter"/><defs><linearGradient x1="1.094" y1="0.072" x2="-0.333" y2="0.867" id="obj_47_grad_pat_fill"><stop offset="0" stop-color="#009AFF"/><stop offset="1" stop-color="#FFFFFF"/></linearGradient></defs></g><g id="obj_48" transform="matrix(1,0,0,1,96.414,64.028)" opacity="1" display="inline"><path d="M 31.794 0 C 41.219 31.2681 28.487 58.0512 0 60.3432 C 34.556 60.5152 50.752 31.6311 52.871 3.809 C 50.36 1.785 38.754 6.406 31.794 0 Z " fill-opacity="1" fill="url(#obj_48_grad_pat_fill)" stroke="none" stroke-width="1" stroke-linecap="square" stroke-linejoin="miter"/><defs><linearGradient x1="1.06" y1="0.13" x2="-0.111" y2="0.849" id="obj_48_grad_pat_fill"><stop offset="0" stop-color="#0066FF"/><stop offset="1" stop-color="#FFFFFF"/></linearGradient></defs></g><g id="obj_49" transform="matrix(1,0,0,1,88.094,76.192)" opacity="1" display="inline"><path d="M 50.515 0 C 48.676 32.6099 27.552 53.4189 0 45.8269 C 32.414 57.8089 57.511 36.2069 69.017 10.787 C 67.35 8.029 54.864 8.4 50.515 0 Z " fill-opacity="1" fill="url(#obj_49_grad_pat_fill)" stroke="none" stroke-width="1" stroke-linecap="square" stroke-linejoin="miter"/><defs><linearGradient x1="1" y1="0.5" x2="0" y2="0.5" id="obj_49_grad_pat_fill"><stop offset="0" stop-color="#0000FF"/><stop offset="1" stop-color="#FFFFFF"/></linearGradient></defs></g><g id="obj_50" transform="matrix(1,0,0,1,81.274,91.113)" opacity="1" display="inline"><path d="M 63.144 0 C 50.262 30.0123 23.295 42.3435 0 25.7873 C 26.362 48.1326 57.335 36.4174 76.841 16.4652 C 76.218 13.3032 64.358 9.3811 63.144 0 Z " fill-opacity="1" fill="#6600FF" stroke="none" stroke-width="1" stroke-linecap="square" stroke-linejoin="miter"/><defs/></g><g id="obj_51" transform="matrix(1,0,0,1,75.09,101.317)" opacity="1" display="inline"><path d="M 64.9469 20.8372 C 35.7889 35.5484 7.204 27.6583 0 0 C 5.831 34.0644 37.0889 44.9985 64.8579 42.2555 C 66.4109 39.4314 59.8459 28.8033 64.9469 20.8372 Z " fill-opacity="1" fill="url(#obj_51_grad_pat_fill)" stroke="none" stroke-width="1" stroke-linecap="square" stroke-linejoin="miter"/><defs><linearGradient x1="0.902" y1="1.108" x2="0.169" y2="-0.225" id="obj_51_grad_pat_fill"><stop offset="0" stop-color="#FF00FF"/><stop offset="1" stop-color="#FFFFFF"/></linearGradient></defs></g><g id="obj_52" transform="matrix(1,0,0,1,75.26,93.028)" opacity="1" display="inline"><path d="M 54.832 41.794 C 22.399 45.645 -1.764 28.454 0.928 0 C -5.243 34.004 20.388 54.97 47.421 61.888 C 49.849 59.767 47.313 47.537 54.832 41.794 Z " fill-opacity="1" fill="url(#obj_52_grad_pat_fill)" stroke="none" stroke-width="1" stroke-linecap="square" stroke-linejoin="miter"/><defs><linearGradient x1="0.728" y1="1.041" x2="0.266" y2="-0.084" id="obj_52_grad_pat_fill"><stop offset="0" stop-color="#FF009A"/><stop offset="1" stop-color="#FFFFFF"/></linearGradient></defs></g><g id="obj_53" transform="matrix(1,0,0,1,71.894,89.027)" opacity="1" display="inline"><path d="M 44.713 54.182 C 12.918 46.707 -4.434 24.781 6.907 0 C -10.524 26.461 7.841 54.784 30.875 70.529 C 33.882 69.368 35.684 57.006 44.713 54.182 Z " fill-opacity="1" fill="url(#obj_53_grad_pat_fill)" stroke="none" stroke-width="1" stroke-linecap="square" stroke-linejoin="miter"/><defs><linearGradient x1="0.5" y1="1" x2="0.5" y2="-0.002" id="obj_53_grad_pat_fill"><stop offset="0" stop-color="#FF0066"/><stop offset="1" stop-color="#FFFFFF"/></linearGradient></defs></g><g id="obj_54" transform="matrix(1,0,0,1,61.602,76.487)" opacity="1" display="inline"><path d="M 24.1171 67.5789 C 4.5654 41.4149 7.3733 11.894 33.358 0 C 0.8244 11.658 -4.5145 44.3389 3.0084 71.2099 C 6.0593 72.2519 15.3852 63.9399 24.1171 67.5789 Z " fill-opacity="1" fill="url(#obj_54_grad_pat_fill)" stroke="none" stroke-width="1" stroke-linecap="square" stroke-linejoin="miter"/><defs><linearGradient x1="-0.094" y1="0.928" x2="1.333" y2="0.133" id="obj_54_grad_pat_fill"><stop offset="0" stop-color="#FF0000"/><stop offset="0.1211" stop-color="#FF0000"/><stop offset="1" stop-color="#FFFFFF"/></linearGradient></defs></g><g id="obj_55" transform="matrix(1,0,0,1,68.559,79.724)" opacity="1" display="inline"><path d="M 33.005 66.666 C 5.6852 48.767 -1.7727 20.066 18.5781 0 C -9.0957 19.174 -1.8477 54.62 14.4132 77.295 C 17.6351 77.231 23.5561 66.231 33.005 66.666 Z " fill-opacity="1" fill="url(#obj_55_grad_pat_fill)" stroke="none" stroke-width="1" stroke-linecap="square" stroke-linejoin="miter"/><defs><linearGradient x1="0.201" y1="0.96" x2="0.977" y2="0.049" id="obj_55_grad_pat_fill"><stop offset="0" stop-color="#FF0033"/><stop offset="0.1016" stop-color="#FF0033"/><stop offset="1" stop-color="#FFFFFF"/></linearGradient></defs></g><g id="obj_56" transform="matrix(1,0,0,1,50.221,75.275)" opacity="1" display="inline"><path d="M 21.076 60.347 C 11.653 29.0719 24.386 2.2898 52.875 0.0008 C 18.315 -0.1752 2.119 28.7129 0 56.538 C 2.51 58.558 14.117 53.939 21.076 60.347 Z " fill-opacity="1" fill="url(#obj_56_grad_pat_fill)" stroke="none" stroke-width="1" stroke-linecap="square" stroke-linejoin="miter"/><defs><linearGradient x1="-0.07" y1="0.82" x2="1.143" y2="0.207" id="obj_56_grad_pat_fill"><stop offset="0" stop-color="#FF3200"/><stop offset="0.0859" stop-color="#FF3200"/><stop offset="1" stop-color="#FFFFFF"/></linearGradient></defs></g><g id="obj_57" transform="matrix(1,0,0,1,41.618,74.384)" opacity="1" display="inline"><path d="M 18.503 49.23 C 20.343 16.619 41.47 -4.192 69.022 3.4 C 36.606 -8.585 11.508 13.022 0 38.443 C 1.668 41.201 14.154 40.828 18.503 49.23 Z " fill-opacity="1" fill="url(#obj_57_grad_pat_fill)" stroke="none" stroke-width="1" stroke-linecap="square" stroke-linejoin="miter"/><defs><linearGradient x1="0" y1="0.5" x2="1" y2="0.5" id="obj_57_grad_pat_fill"><stop offset="0" stop-color="#FF9700"/><stop offset="0.1094" stop-color="#FF9700"/><stop offset="1" stop-color="#FFFFFF"/></linearGradient></defs></g><g id="obj_58" transform="matrix(1,0,0,1,41.242,70.808)" opacity="1" display="inline"><path d="M 13.698 37.924 C 26.58 7.911 53.55 -4.42 76.843 12.137 C 50.482 -10.209 19.508 1.507 0 21.459 C 0.625 24.622 12.486 28.543 13.698 37.924 Z " fill-opacity="1" fill="url(#obj_58_grad_pat_fill)" stroke="none" stroke-width="1" stroke-linecap="square" stroke-linejoin="miter"/><defs><linearGradient x1="0.02" y1="0.36" x2="0.965" y2="0.698" id="obj_58_grad_pat_fill"><stop offset="0" stop-color="#FFFF00"/><stop offset="0.0859" stop-color="#FFFF00"/><stop offset="1" stop-color="#FFFFFF"/></linearGradient></defs></g><g id="obj_59" transform="matrix(1,0,0,1,47.164,64.986)" opacity="1" display="inline"><path d="M 7.2582 27.852 C 29.6281 4.0564 59.1881 1.6914 75.416 25.218 C 58.2841 -4.7975 25.1742 -4.3795 0.0182 7.6953 C -0.4778 10.8793 9.3282 18.6222 7.2582 27.852 Z " fill-opacity="1" fill="url(#obj_59_grad_pat_fill)" stroke="none" stroke-width="1" stroke-linecap="square" stroke-linejoin="miter"/><defs><linearGradient x1="0.038" y1="0.218" x2="0.978" y2="1.144" id="obj_59_grad_pat_fill"><stop offset="0" stop-color="#C9FF00"/><stop offset="0.0898" stop-color="#C9FF00"/><stop offset="1" stop-color="#FFFFFF"/></linearGradient></defs></g><g id="obj_60" transform="matrix(1,0,0,1,59.40400000000001,55.925)" opacity="1" display="inline"><path d="M 0.1523 21.8211 C 29.3132 7.1092 57.898 15.0002 65.1 42.656 C 59.268 8.5942 28.0112 -2.3387 0.2453 0.4033 C -1.3117 3.2273 5.2543 13.8552 0.1523 21.8211 Z " fill-opacity="1" fill="url(#obj_60_grad_pat_fill)" stroke="none" stroke-width="1" stroke-linecap="square" stroke-linejoin="miter"/><defs><linearGradient x1="0.122" y1="0.176" x2="0.988" y2="0.939" id="obj_60_grad_pat_fill"><stop offset="0" stop-color="#97FF00"/><stop offset="0.0898" stop-color="#97FF00"/><stop offset="1" stop-color="#FFFFFF"/></linearGradient></defs></g><g id="obj_61" transform="matrix(1,0,0,1,69.567,45.127)" opacity="1" display="inline"><path d="M 0 20.095 C 32.4322 16.246 56.5964 33.434 53.9043 61.886 C 60.0744 27.882 34.4412 6.918 7.41 0 C 4.983 2.121 7.519 14.354 0 20.095 Z " fill-opacity="1" fill="url(#obj_61_grad_pat_fill)" stroke="none" stroke-width="1" stroke-linecap="square" stroke-linejoin="miter"/><defs><linearGradient x1="0.062" y1="0.077" x2="1.119" y2="0.863" id="obj_61_grad_pat_fill"><stop offset="0" stop-color="#32FF00"/><stop offset="0.1016" stop-color="#32FF00"/><stop offset="1" stop-color="#FFFFFF"/></linearGradient></defs></g><g id="obj_62" transform="matrix(1,0,0,1,82.656,40.53)" opacity="1" display="inline"><path d="M 0 16.348 C 31.7927 23.823 48.6196 48.24 36.3587 74.056 C 53.7875 44.213 36.8697 15.746 13.8349 0 C 10.8309 1.163 9.0299 13.524 0 16.348 Z " fill-opacity="1" fill="url(#obj_62_grad_pat_fill)" stroke="none" stroke-width="1" stroke-linecap="square" stroke-linejoin="miter"/><defs><linearGradient x1="0.5" y1="0" x2="0.5" y2="1" id="obj_62_grad_pat_fill"><stop offset="0" stop-color="#00FFDF"/><stop offset="0.0781" stop-color="#00FFDF"/><stop offset="0.7656" stop-color="#FFFFFF"/><stop offset="1" stop-color="#FFFFFF"/></linearGradient></defs></g><g id="obj_63" transform="matrix(1,0,0,1,98.35,43.137)" opacity="1" display="inline"><path d="M 0 10.629 C 27.3188 28.527 34.7798 57.226 14.4309 77.291 C 41.0147 55.209 34.8528 22.673 18.5929 0 C 15.3699 0.064 9.4499 11.065 0 10.629 Z " fill-opacity="1" fill="url(#obj_63_grad_pat_fill)" stroke="none" stroke-width="1" stroke-linecap="square" stroke-linejoin="miter"/><defs><linearGradient x1="0.877" y1="0.055" x2="-0.12" y2="0.956" id="obj_63_grad_pat_fill"><stop offset="0" stop-color="#00CDFF"/><stop offset="0.0781" stop-color="#00CDFF"/><stop offset="1" stop-color="#FFFFFF"/></linearGradient></defs></g><g id="obj_64" transform="matrix(1,0,0,1,104.887,52.446)" opacity="1" display="inline"><path d="M 9.241 3.722 C 28.791 29.884 25.986 59.403 0 71.299 C 32.532 59.64 37.8709 26.961 30.347 0.091 C 27.297 -0.95 17.971 7.362 9.241 3.722 Z " fill-opacity="1" fill="url(#obj_64_grad_pat_fill)" stroke="none" stroke-width="1" stroke-linecap="square" stroke-linejoin="miter"/><defs><linearGradient x1="1.094" y1="0.072" x2="-0.333" y2="0.867" id="obj_64_grad_pat_fill"><stop offset="0" stop-color="#009AFF"/><stop offset="0.1055" stop-color="#009AFF"/><stop offset="1" stop-color="#FFFFFF"/></linearGradient></defs></g><g id="obj_65" transform="matrix(1,0,0,1,96.414,64.028)" opacity="1" display="inline"><path d="M 31.794 0 C 41.219 31.2681 28.487 58.0512 0 60.3432 C 34.556 60.5152 50.752 31.6311 52.871 3.809 C 50.36 1.785 38.754 6.406 31.794 0 Z " fill-opacity="1" fill="url(#obj_65_grad_pat_fill)" stroke="none" stroke-width="1" stroke-linecap="square" stroke-linejoin="miter"/><defs><linearGradient x1="1.06" y1="0.13" x2="-0.111" y2="0.849" id="obj_65_grad_pat_fill"><stop offset="0" stop-color="#0066FF"/><stop offset="0.0898" stop-color="#0066FF"/><stop offset="1" stop-color="#FFFFFF"/></linearGradient></defs></g><g id="obj_66" transform="matrix(1,0,0,1,88.094,76.192)" opacity="1" display="inline"><path d="M 50.515 0 C 48.676 32.6099 27.552 53.4189 0 45.8269 C 32.414 57.8089 57.511 36.2069 69.017 10.787 C 67.35 8.029 54.864 8.4 50.515 0 Z " fill-opacity="1" fill="url(#obj_66_grad_pat_fill)" stroke="none" stroke-width="1" stroke-linecap="square" stroke-linejoin="miter"/><defs><linearGradient x1="1" y1="0.5" x2="0" y2="0.5" id="obj_66_grad_pat_fill"><stop offset="0" stop-color="#0000FF"/><stop offset="0.0898" stop-color="#0000FF"/><stop offset="1" stop-color="#FFFFFF"/></linearGradient></defs></g><g id="obj_67" transform="matrix(1,0,0,1,81.274,91.113)" opacity="1" display="inline"><path d="M 63.144 0 C 50.262 30.0123 23.295 42.3435 0 25.7873 C 26.362 48.1326 57.335 36.4174 76.841 16.4652 C 76.218 13.3032 64.358 9.3811 63.144 0 Z " fill-opacity="1" fill="url(#obj_67_grad_pat_fill)" stroke="none" stroke-width="1" stroke-linecap="square" stroke-linejoin="miter"/><defs><linearGradient x1="1" y1="0.447" x2="-0.007" y2="0.59" id="obj_67_grad_pat_fill"><stop offset="0" stop-color="#6600FF"/><stop offset="0.0898" stop-color="#6600FF"/><stop offset="1" stop-color="#FFFFFF"/></linearGradient></defs></g><g id="obj_75" transform="matrix(0.9271838545667874,-0.374606593415912,0.374606593415912,0.9271838545667874,77.72906701573181,111.52595119629905)" opacity="1" display="inline"><path d="M 64.9469 20.8372 C 35.7889 35.5484 7.204 27.6583 0 0 C 5.831 34.0644 37.0889 44.9985 64.8579 42.2555 C 66.4109 39.4314 59.8459 28.8033 64.9469 20.8372 Z " fill-opacity="1" fill="url(#obj_75_grad_pat_fill)" stroke="none" stroke-width="1" stroke-linecap="square" stroke-linejoin="miter" filter="url(#obj_75_filter)"/><defs><linearGradient spreadMethod="pad" x1="0" y1="1" x2="0" y2="0" id="obj_75_grad_pat_fill"><stop offset="0" stop-color="#aa56ff" stop-opacity="0.99609375"/><stop offset="1" stop-color="#7f00ff" stop-opacity="0.99609375"/></linearGradient><filter id="obj_75_filter" x="-123%" y="-188%" width="346%" height="476%" filterUnits="objectBoundingBox"><feGaussianBlur in="SourceAlpha" stdDeviation="1"/><feComposite result="glowInnerdiff" operator="arithmetic" in2="SourceAlpha" k1="0" k2="-1" k3="1" k4="0"/><feFlood flood-color="#2b0059" flood-opacity="1"/><feComposite operator="in" in2="glowInnerdiff"/><feComposite result="glowInner" operator="over" in2="SourceGraphic"/></filter></defs></g><g id="obj_68" transform="matrix(1,0,0,1,75.676,100)" opacity="1" display="inline"><path d="M 64.9469 20.8372 C 35.7889 35.5484 7.204 27.6583 0 0 C 5.831 34.0644 37.0889 44.9985 64.8579 42.2555 C 66.4109 39.4314 59.8459 28.8033 64.9469 20.8372 Z " fill-opacity="1" fill="url(#obj_68_grad_pat_fill)" stroke="none" stroke-width="1" stroke-linecap="square" stroke-linejoin="miter"/><defs><linearGradient x1="0.902" y1="1.108" x2="0.169" y2="-0.225" id="obj_68_grad_pat_fill"><stop offset="0" stop-color="#FF00FF"/><stop offset="0.125" stop-color="#FF00FF"/><stop offset="1" stop-color="#FFFFFF"/></linearGradient></defs></g><g id="obj_69" transform="matrix(1,0,0,1,75.26,93.028)" opacity="1" display="inline"><path d="M 54.832 41.794 C 22.399 45.645 -1.764 28.454 0.928 0 C -5.243 34.004 20.388 54.97 47.421 61.888 C 49.849 59.767 47.313 47.537 54.832 41.794 Z " fill-opacity="1" fill="url(#obj_69_grad_pat_fill)" stroke="none" stroke-width="1" stroke-linecap="square" stroke-linejoin="miter"/><defs><linearGradient x1="0.728" y1="1.041" x2="0.266" y2="-0.084" id="obj_69_grad_pat_fill"><stop offset="0" stop-color="#FF009A"/><stop offset="0.1172" stop-color="#FF009A"/><stop offset="1" stop-color="#FFFFFF"/></linearGradient></defs></g><g id="obj_70" transform="matrix(1,0,0,1,71.894,89.027)" opacity="1" display="inline"><path d="M 44.713 54.182 C 12.918 46.707 -4.434 24.781 6.907 0 C -10.524 26.461 7.841 54.784 30.875 70.529 C 33.882 69.368 35.684 57.006 44.713 54.182 Z " fill-opacity="1" fill="url(#obj_70_grad_pat_fill)" stroke="none" stroke-width="1" stroke-linecap="square" stroke-linejoin="miter"/><defs><linearGradient x1="0.5" y1="1" x2="0.5" y2="-0.002" id="obj_70_grad_pat_fill"><stop offset="0" stop-color="#FF0066"/><stop offset="0.1016" stop-color="#FF0066"/><stop offset="1" stop-color="#FFFFFF"/></linearGradient></defs></g></g></svg>