<svg version="1.1" width="200" height="200" viewBox="0 0 200 200" xmlns="http://www.w3.org/2000/svg" xmlns:xlink="http://www.w3.org/1999/xlink"><defs xmlns="http://www.w3.org/2000/svg"><style xmlns="http://www.w3.org/1999/xhtml" type="text/css">@import url(https://fonts.googleapis.com/css?family=Courgette:regular);</style><style xmlns="http://www.w3.org/1999/xhtml" type="text/css">@import url(https://fonts.googleapis.com/css?family=Damion:regular);</style></defs><g xmlns="http://www.w3.org/2000/svg" id="obj_2"><g id="obj_72" transform="matrix(0.9396926207859084,-0.3420201433256687,0.3420201433256687,0.9396926207859084,101.4823274022121,84.49611017248974)" opacity="1" display="inline"><path d="M 3.091 5.053 C 3.091 3.11 4.375 2.138 6.943 2.138 C 8.554 2.138 10.185 2.627 11.836 3.603 C 12.314 3.886 12.688 4.148 12.956 4.387 C 13.225 4.626 13.481 4.746 13.725 4.746 C 13.969 4.746 14.204 4.685 14.428 4.563 C 14.653 4.441 14.853 4.287 15.029 4.101 C 15.674 3.388 15.605 2.7 14.824 2.036 C 13.652 1.03 11.709 0.381 8.994 0.088 C 8.447 0.029 7.754 0 6.914 0 C 6.074 0 5.188 0.151 4.255 0.454 C 3.322 0.757 2.539 1.167 1.904 1.684 C 0.634 2.729 0 4.062 0 5.683 C 0 7.607 0.879 9.36 2.636 10.942 C 4.16 12.329 5.962 13.32 8.042 13.916 C 7.475 14.384 6.943 15.058 6.445 15.937 L 5.273 18.032 C 4.248 19.936 3.33 20.971 2.519 21.137 C 2.236 21.186 1.943 21.176 1.64 21.108 C 1.338 21.04 1.14 21.008 1.047 21.013 C 0.954 21.018 0.891 21.098 0.857 21.255 C 0.822 21.411 0.864 21.606 0.981 21.84 C 1.098 22.075 1.289 22.295 1.552 22.5 C 2.168 22.988 2.841 23.205 3.574 23.152 C 4.306 23.098 4.9 22.946 5.354 22.697 C 5.808 22.448 6.213 22.133 6.57 21.753 C 6.926 21.372 7.243 20.947 7.522 20.478 C 7.8 20.009 8.056 19.531 8.291 19.043 L 8.95 17.607 C 9.155 17.138 9.345 16.736 9.521 16.399 C 9.697 16.062 9.848 15.754 9.975 15.476 C 10.102 15.197 10.244 14.946 10.4 14.721 C 10.732 14.214 11.157 13.891 11.675 13.755 C 13.725 19.028 15.81 22.036 17.929 22.778 C 18.105 22.846 18.283 22.881 18.464 22.881 C 18.645 22.881 18.808 22.849 18.955 22.785 C 19.101 22.722 19.223 22.641 19.321 22.544 C 19.526 22.358 19.629 22.153 19.629 21.928 C 19.629 21.704 19.555 21.538 19.409 21.43 C 17.944 20.366 16.318 17.26 14.531 12.114 L 13.652 9.638 C 12.646 6.787 11.797 5.029 11.103 4.365 C 10.859 4.179 10.605 4.087 10.341 4.087 C 10.078 4.087 9.848 4.128 9.653 4.211 C 9.458 4.294 9.287 4.399 9.14 4.526 C 8.808 4.819 8.642 5.117 8.642 5.42 C 8.642 5.722 8.708 5.993 8.84 6.233 C 8.972 6.472 9.121 6.806 9.287 7.236 C 9.765 8.486 10.136 9.487 10.4 10.239 L 11.147 12.348 C 9.067 12.075 7.226 11.259 5.625 9.902 C 3.935 8.476 3.091 6.86 3.091 5.053 Z " fill-opacity="1" fill="url(#obj_72_grad_pat_fill)" stroke-opacity="1" stroke="#ffffff" stroke-width="1" stroke-linecap="square" stroke-linejoin="miter"/><defs><linearGradient x2="0" y2="1" id="obj_72_grad_pat_fill"><stop offset="0" stop-color="#5e5e5e" stop-opacity="0.99609375"/><stop offset="1" stop-color="#111111" stop-opacity="1"/></linearGradient></defs></g><g id="obj_71" transform="matrix(0.9396926207859084,0.3420201433256687,-0.3420201433256687,0.9396926207859084,81.11644614438129,77.78259677915018)" opacity="1" display="inline"><path d="M 16.538 5.053 C 16.538 3.11 15.254 2.138 12.686 2.138 C 11.075 2.138 9.444 2.627 7.793 3.603 C 7.315 3.886 6.941 4.148 6.673 4.387 C 6.404 4.626 6.148 4.746 5.904 4.746 C 5.66 4.746 5.425 4.685 5.201 4.563 C 4.976 4.441 4.776 4.287 4.6 4.101 C 3.955 3.388 4.024 2.7 4.805 2.036 C 5.977 1.03 7.92 0.381 10.635 0.088 C 11.182 0.029 11.875 0 12.715 0 C 13.555 0 14.441 0.151 15.374 0.454 C 16.307 0.757 17.09 1.167 17.725 1.684 C 18.995 2.729 19.629 4.062 19.629 5.683 C 19.629 7.607 18.75 9.36 16.993 10.942 C 15.469 12.329 13.667 13.32 11.587 13.916 C 12.154 14.384 12.686 15.058 13.184 15.937 L 14.356 18.032 C 15.381 19.936 16.299 20.971 17.11 21.137 C 17.393 21.186 17.686 21.176 17.989 21.108 C 18.291 21.04 18.489 21.008 18.582 21.013 C 18.675 21.018 18.738 21.098 18.772 21.255 C 18.807 21.411 18.765 21.606 18.648 21.84 C 18.531 22.075 18.34 22.295 18.077 22.5 C 17.461 22.988 16.788 23.205 16.055 23.152 C 15.323 23.098 14.729 22.946 14.275 22.697 C 13.821 22.448 13.416 22.133 13.059 21.753 C 12.703 21.372 12.386 20.947 12.107 20.478 C 11.829 20.009 11.573 19.531 11.338 19.043 L 10.679 17.607 C 10.474 17.138 10.284 16.736 10.108 16.399 C 9.932 16.062 9.781 15.754 9.654 15.476 C 9.527 15.197 9.385 14.946 9.229 14.721 C 8.897 14.214 8.472 13.891 7.954 13.755 C 5.904 19.028 3.819 22.036 1.7 22.778 C 1.524 22.846 1.346 22.881 1.165 22.881 C 0.984 22.881 0.821 22.849 0.674 22.785 C 0.528 22.722 0.406 22.641 0.308 22.544 C 0.103 22.358 0 22.153 0 21.928 C 0 21.704 0.074 21.538 0.22 21.43 C 1.685 20.366 3.311 17.26 5.098 12.114 L 5.977 9.638 C 6.983 6.787 7.832 5.029 8.526 4.365 C 8.77 4.179 9.024 4.087 9.288 4.087 C 9.551 4.087 9.781 4.128 9.976 4.211 C 10.171 4.294 10.342 4.399 10.489 4.526 C 10.821 4.819 10.987 5.117 10.987 5.42 C 10.987 5.722 10.921 5.993 10.789 6.233 C 10.657 6.472 10.508 6.806 10.342 7.236 C 9.864 8.486 9.493 9.487 9.229 10.239 L 8.482 12.348 C 10.562 12.075 12.403 11.259 14.004 9.902 C 15.694 8.476 16.538 6.86 16.538 5.053 Z " fill-opacity="1" fill="url(#obj_71_grad_pat_fill)" stroke-opacity="1" stroke="#ffffff" stroke-width="1" stroke-linecap="square" stroke-linejoin="miter"/><defs><linearGradient x2="0" y2="1" id="obj_71_grad_pat_fill"><stop offset="0" stop-color="#5e5e5e" stop-opacity="0.99609375"/><stop offset="1" stop-color="#111111" stop-opacity="1"/></linearGradient></defs></g><g id="obj_73" transform="matrix(1,0,0,1,96.418,95.118)" opacity="1" display="inline"><path d="M 1.937 0.938 C 2.041 0.714 2.172 0.547 2.328 0.438 C 2.484 0.328 2.638 0.274 2.789 0.274 C 2.914 0.274 3.026 0.319 3.125 0.41 C 3.224 0.502 3.273 0.636 3.273 0.813 C 3.273 0.881 3.265 0.953 3.25 1.032 C 3.234 1.11 3.206 1.193 3.164 1.282 C 3.278 1.136 3.443 0.986 3.656 0.832 C 3.87 0.679 4.105 0.541 4.363 0.418 C 4.621 0.296 4.887 0.196 5.16 0.117 C 5.433 0.039 5.693 0 5.937 0 C 6.213 0 6.444 0.067 6.629 0.2 C 6.814 0.332 6.906 0.558 6.906 0.875 C 6.906 1.063 6.877 1.258 6.82 1.461 C 6.763 1.664 6.689 1.867 6.597 2.071 C 6.506 2.274 6.405 2.473 6.293 2.668 C 6.181 2.864 6.07 3.047 5.961 3.219 C 5.851 3.391 5.751 3.548 5.66 3.692 C 5.569 3.835 5.497 3.953 5.445 4.047 C 5.377 4.131 5.344 4.227 5.344 4.336 C 5.344 4.378 5.357 4.414 5.383 4.446 C 5.409 4.477 5.45 4.492 5.508 4.492 C 5.544 4.492 5.586 4.489 5.633 4.481 C 5.68 4.473 5.737 4.446 5.805 4.399 C 6.086 4.295 6.374 4.164 6.668 4.008 C 6.962 3.852 7.245 3.687 7.515 3.512 C 7.786 3.338 8.035 3.163 8.262 2.989 C 8.488 2.814 8.677 2.657 8.828 2.516 C 8.87 2.479 8.911 2.453 8.953 2.438 C 8.995 2.422 9.034 2.414 9.07 2.414 C 9.159 2.414 9.228 2.448 9.277 2.516 C 9.327 2.584 9.351 2.67 9.351 2.774 C 9.351 2.935 9.301 3.115 9.199 3.313 C 9.097 3.511 8.937 3.696 8.719 3.867 C 8.422 4.081 8.15 4.276 7.902 4.453 C 7.655 4.631 7.402 4.796 7.144 4.95 C 6.887 5.103 6.61 5.246 6.316 5.379 C 6.022 5.512 5.677 5.636 5.281 5.75 C 5.146 5.792 5.022 5.823 4.91 5.844 C 4.798 5.865 4.695 5.875 4.601 5.875 C 4.325 5.875 4.124 5.798 3.996 5.645 C 3.868 5.491 3.805 5.276 3.805 5 C 3.805 4.964 3.806 4.929 3.808 4.895 C 3.811 4.861 3.815 4.823 3.82 4.782 C 3.831 4.62 3.874 4.443 3.949 4.25 C 4.025 4.058 4.116 3.86 4.222 3.657 C 4.329 3.453 4.443 3.252 4.562 3.051 C 4.682 2.851 4.793 2.66 4.894 2.481 C 4.996 2.301 5.081 2.141 5.148 2 C 5.216 1.86 5.25 1.745 5.25 1.657 C 5.25 1.578 5.228 1.512 5.183 1.457 C 5.139 1.403 5.073 1.375 4.984 1.375 C 4.651 1.375 4.334 1.474 4.035 1.672 C 3.735 1.87 3.456 2.114 3.195 2.403 C 2.935 2.692 2.695 2.998 2.476 3.321 C 2.258 3.644 2.065 3.933 1.898 4.188 C 1.794 4.36 1.699 4.543 1.613 4.739 C 1.527 4.934 1.437 5.116 1.344 5.285 C 1.25 5.455 1.144 5.595 1.027 5.707 C 0.91 5.819 0.763 5.875 0.586 5.875 C 0.403 5.875 0.26 5.818 0.156 5.703 C 0.052 5.589 0 5.448 0 5.282 C 0 5.193 0.036 5.05 0.109 4.852 C 0.182 4.654 0.276 4.425 0.39 4.164 C 0.505 3.904 0.634 3.624 0.777 3.325 C 0.92 3.025 1.064 2.728 1.207 2.434 C 1.35 2.14 1.487 1.862 1.617 1.602 C 1.747 1.341 1.854 1.12 1.937 0.938 Z " fill-opacity="1" fill="url(#obj_73_grad_pat_fill)" stroke="none" stroke-width="1" stroke-linecap="square" stroke-linejoin="miter"/><defs><radialGradient spreadMethod="pad" cx="0" cy="0" r="1.5" id="obj_73_grad_pat_fill"><stop offset="0" stop-color="#4f4f4f" stop-opacity="0.9921875"/><stop offset="1" stop-color="#212121" stop-opacity="0.99609375"/></radialGradient></defs></g><g id="obj_75" transform="matrix(1,0,0,1,89.858,104.165)" opacity="1" display="inline"><path d="M 15.945 13.505 L 10.141 19.103 L 4.319 13.505 C 2.745 11.989 1.635 10.554 0.98 9.196 C 0.327 7.842 0 6.368 0 4.776 C 0 3.457 0.494 2.333 1.484 1.398 C 2.477 0.467 3.672 0 5.071 0 C 6.471 0 7.665 0.467 8.657 1.398 C 9.646 2.333 10.141 3.457 10.141 4.776 C 10.141 3.457 10.637 2.333 11.626 1.398 C 12.618 0.467 13.812 0 15.212 0 C 16.612 0 17.806 0.467 18.798 1.398 C 19.788 2.333 20.283 3.457 20.283 4.776 C 20.283 6.355 19.956 7.827 19.303 9.188 C 18.648 10.548 17.531 11.989 15.945 13.505 Z " fill-opacity="1" fill="url(#obj_75_grad_pat_fill)" stroke="none" stroke-width="1" stroke-linecap="square" stroke-linejoin="miter" fill-rule="nozero" filter="url(#obj_75_filter)"/><defs><linearGradient spreadMethod="pad" x2="0.0078125" y2="0.436767578125" x1="0" y1="0" id="obj_75_grad_pat_fill"><stop offset="0" stop-color="#ffaaff" stop-opacity="0.99609375"/><stop offset="1" stop-color="#7f007f" stop-opacity="0.99609375"/></linearGradient><filter id="obj_75_filter" x="-200%" y="-200%" width="500%" height="500%" filterUnits="objectBoundingBox"><feGaussianBlur in="SourceAlpha" stdDeviation="1"/><feOffset dx="0.7071067811865474" dy="0.7071067811865477"/><feComposite result="shadowInnerdiff" operator="arithmetic" in2="SourceAlpha" k1="0" k2="-1" k3="1" k4="0"/><feFlood flood-color="#7f007f" flood-opacity="1"/><feComposite operator="in" in2="shadowInnerdiff"/><feComposite result="shadowInner" operator="over" in2="SourceGraphic"/></filter></defs></g></g></svg>